<?xml version="1.0" encoding="utf-8"?>
<!-- Generator: Adobe Illustrator 24.0.1, SVG Export Plug-In . SVG Version: 6.00 Build 0)  -->
<svg version="1.1" id="Capa_1" xmlns="http://www.w3.org/2000/svg" xmlns:xlink="http://www.w3.org/1999/xlink" x="0px" y="0px"
	 viewBox="0 0 119.3 184.6" style="enable-background:new 0 0 119.3 184.6;" xml:space="preserve">
<style type="text/css">
	.st0{fill:#737284;}
	.st1{fill:#F86319;}
	.st2{fill:#1B2C3E;}
</style>
<g>
	<path class="st0" d="M113.3,70.1c-2.9-7.1-7.2-13.5-12.6-18.8c-5.3-5.3-11.7-9.7-18.8-12.6c-6.8-2.8-14.3-4.4-22.2-4.4
		s-15.4,1.6-22.2,4.4c-7.1,2.9-13.5,7.2-18.8,12.6C13.3,56.6,8.9,63,6,70.1c-2.8,6.8-4.4,14.3-4.4,22.2s1.6,15.4,4.4,22.2
		c2.9,7.1,7.2,13.5,12.6,18.8c5.3,5.3,11.7,9.7,18.8,12.6c6.8,2.8,14.3,4.4,22.2,4.4s15.4-1.6,22.2-4.4c7.1-2.9,13.5-7.2,18.8-12.6
		c5.3-5.3,9.7-11.7,12.6-18.8c2.8-6.8,4.4-14.3,4.4-22.2S116.1,76.9,113.3,70.1z M95.5,128.2c-4.7,4.7-10.3,8.4-16.5,11
		c-6,2.5-12.6,3.9-19.4,3.9c-6.9,0-13.4-1.4-19.4-3.9c-6.2-2.6-11.8-6.3-16.5-11c-4.7-4.7-8.4-10.3-11-16.5
		c-2.5-6-3.9-12.6-3.9-19.4c0-6.9,1.4-13.4,3.9-19.4c2.6-6.2,6.3-11.8,11-16.5c4.7-4.7,10.3-8.4,16.5-11c6-2.5,12.6-3.9,19.4-3.9
		c6.9,0,13.4,1.4,19.4,3.9c6.2,2.6,11.8,6.3,16.5,11s8.4,10.3,11,16.5c2.5,6,3.9,12.6,3.9,19.4c0,6.9-1.4,13.4-3.9,19.4
		C104,117.9,100.2,123.5,95.5,128.2z"/>
	<path class="st1" d="M100.7,92.3C100.7,92.3,100.7,92.3,100.7,92.3L100.7,92.3c0-5.6-1.1-10.9-3.1-15.7c-2.1-5-5.1-9.5-8.9-13.3
		c-3.8-3.8-8.3-6.8-13.3-8.9c-4.8-2-10.2-3.1-15.7-3.1s-10.9,1.1-15.7,3.1c-5,2.1-9.5,5.1-13.3,8.9c-3.8,3.8-6.8,8.3-8.9,13.3
		c-2,4.8-3.1,10.2-3.1,15.7c0,5.6,1.1,10.9,3.1,15.7c2.1,5,5.1,9.5,8.9,13.3c3.8,3.8,8.3,6.8,13.3,8.9c4.8,2,10.2,3.1,15.7,3.1
		s10.9-1.1,15.7-3.1c5-2.1,9.5-5.1,13.3-8.9l0,0c1.4-1.4,1.4-3.7,0-5.1c-1.4-1.4-3.7-1.4-5.1,0l0,0c-3.1,3.1-6.8,5.6-11,7.3
		c-4,1.7-8.4,2.6-13,2.6s-9-0.9-13-2.6c-4.1-1.7-7.9-4.2-11-7.3c-3.1-3.1-5.6-6.8-7.3-11c-1.7-4-2.6-8.4-2.6-13c0-4.6,0.9-9,2.6-13
		c1.7-4.1,4.2-7.9,7.3-11c3.1-3.1,6.8-5.6,11-7.3c4-1.7,8.4-2.6,13-2.6s9,0.9,13,2.6c4.1,1.7,7.9,4.2,11,7.3c3.1,3.1,5.6,6.8,7.3,11
		c1.7,4,2.6,8.4,2.6,13h0c0,2,1.6,3.6,3.6,3.6C99.1,95.9,100.7,94.3,100.7,92.3L100.7,92.3C100.7,92.3,100.7,92.3,100.7,92.3z"/>
	<path class="st2" d="M82,83c-1.2-3-3-5.6-5.2-7.8c-2.2-2.2-4.9-4-7.8-5.2c-2.9-1.2-6-1.8-9.3-1.8c-2,0-3.6,1.6-3.6,3.6
		c0,2,1.6,3.6,3.6,3.6c2.3,0,4.5,0.5,6.5,1.3c2.1,0.9,3.9,2.1,5.5,3.7c1.6,1.6,2.8,3.4,3.7,5.5c0.8,2,1.3,4.2,1.3,6.5
		c0,2.3-0.5,4.5-1.3,6.5c-0.9,2.1-2.1,3.9-3.7,5.5c-1.6,1.6-3.4,2.8-5.5,3.7c-2,0.8-4.2,1.3-6.5,1.3s-4.5-0.5-6.5-1.3l0,0
		c-2.1-0.9-3.9-2.1-5.5-3.7c-1.4-1.4-3.7-1.4-5.1,0c-1.4,1.4-1.4,3.7,0,5.1l0,0c2.2,2.2,4.9,4,7.8,5.2l0,0c2.9,1.2,6,1.8,9.3,1.8
		c3.3,0,6.4-0.7,9.3-1.8c3-1.2,5.6-3,7.8-5.2c2.2-2.2,4-4.9,5.2-7.8c1.2-2.9,1.8-6,1.8-9.3C83.8,89,83.2,85.9,82,83z"/>
</g>
</svg>
