<svg xmlns="http://www.w3.org/2000/svg" width="17.218" height="24" viewBox="0 0 17.218 24">
  <g id="ic-datos-de-cliente" transform="translate(-4595 235)">
    <path id="Trazado_753" data-name="Trazado 753" d="M762.351,300.569a.5.5,0,0,0-.417-.522,15.842,15.842,0,0,1-5.764-2.4l-.013-.008a.5.5,0,0,0-.046-.027c-.014-.007-.027-.014-.041-.02a.94.94,0,0,0-.093-.028c-.015,0-.03,0-.046-.006s-.032,0-.048,0-.032,0-.049,0-.031,0-.046.006a.488.488,0,0,0-.047.013c-.015,0-.031.009-.045.015a.435.435,0,0,0-.041.02.5.5,0,0,0-.046.027l-.013.008a15.834,15.834,0,0,1-5.763,2.4.5.5,0,0,0-.417.522c.026.414.7,10.134,6.3,11.612l.006,0,.034.01a.489.489,0,0,0,.121.015h0a.488.488,0,0,0,.121-.015l.034-.01.006,0C761.648,310.7,762.325,300.983,762.351,300.569Zm-11.9.376a16.752,16.752,0,0,0,5.435-2.3,16.761,16.761,0,0,0,5.436,2.3c-.194,1.859-1.214,9.035-5.436,10.247C751.666,309.981,750.642,302.8,750.447,300.945Z" transform="translate(3849.866 -523.209)" fill="#515064"/>
    <path id="Trazado_754" data-name="Trazado 754" d="M742.751,262.807a2.685,2.685,0,1,1,2.685-2.685A2.688,2.688,0,0,1,742.751,262.807Zm0-4.376a1.691,1.691,0,1,0,1.69,1.691A1.693,1.693,0,0,0,742.751,258.432Z" transform="translate(3857.037 -492.437)" fill="#515064"/>
    <path id="Trazado_755" data-name="Trazado 755" d="M738.017,281.945h-4.4a2.582,2.582,0,0,0-2.58,2.58v4.29a1.539,1.539,0,0,0,2.107,1.473l.031,7.724a1.4,1.4,0,0,0,.965,1.654l.038.012a1.485,1.485,0,0,0,.407.056,1.634,1.634,0,0,0,.683-.151,1.458,1.458,0,0,0,.511-.394,1.484,1.484,0,0,0,1.2.548,1.731,1.731,0,0,0,.468-.064,1.412,1.412,0,0,0,.754-.533.5.5,0,1,0-.808-.579.407.407,0,0,1-.217.155c-.221.061-.525.015-.614-.139l-.119-3.4a.494.494,0,0,0-.255-.419l.013-.347a.5.5,0,0,0-.478-.516.5.5,0,0,0-.516.478l-.155,4.13a.417.417,0,0,1-.2.177.6.6,0,0,1-.379.047l-.039-.012a.411.411,0,0,1-.281-.508.49.49,0,0,0,.019-.138l-.036-7.781V288.86h0v-3.892a.5.5,0,1,0-.995,0v3.892h0a.662.662,0,0,1-.012.112.538.538,0,0,1-.152.267.552.552,0,0,1-.945-.424v-4.29a1.587,1.587,0,0,1,1.585-1.585h4.4a1.589,1.589,0,0,1,1.584,1.585v.834a.5.5,0,1,0,.995,0v-.834A2.586,2.586,0,0,0,738.017,281.945Z" transform="translate(3863.96 -511.236)" fill="#515064"/>
    <path id="Trazado_756" data-name="Trazado 756" d="M759.355,294.944a.5.5,0,0,1-.5-.5v-1.165a.5.5,0,0,1,.5-.5h0a.5.5,0,0,1,.5.5v1.165a.5.5,0,0,1-.5.5Z" transform="translate(3842.622 -519.552)" fill="#515064"/>
  </g>
</svg>
